<?xml version="1.0" standalone="no"?> <!DOCTYPE svg PUBLIC "-//W3C//DTD SVG 1.0//EN" "http://www.w3.org/TR/2001/REC-SVG-20010904/DTD/svg10.dtd" > <svg xmlns="http://www.w3.org/2000/svg" width="100%" height="100%">
<defs >
<font horiz-adv-x="363" ><font-face
    font-family="Homer Simpson"
    units-per-em="1000"
    panose-1="2 0 6 3 0 0 0 0 0 0"
    ascent="744"
    descent="-201"
    alphabetic="0" />
<missing-glyph horiz-adv-x="364" d="M33 0V666H298V0H33ZM66 33H265V633H66V33Z" />
<glyph unicode=" " glyph-name="space" horiz-adv-x="248" />
<glyph unicode="!" glyph-name="exclam" horiz-adv-x="121" d="M61 184Q78 184 81 179T85 151T82 124T60 122Q44 124 38 128T31 142Q28 165 34 174T61 184ZM44 530Q80 575 88 486Q92 446 89 382Q83 245 75 231Q70 224 59 226Q47 228 43 239T35 300Q28 376 31 447T44 530Z" />
<glyph unicode="&quot;" glyph-name="quotedbl" horiz-adv-x="220" d="M122 514Q123 531 136 547T165 550T186 516T188 452Q182 387 163 367Q158 361 154 365Q149 371 136 433T122 514ZM33 542Q41 559 49 559T74 546Q86 535 89 523T92 472Q91 425 85 397Q79 379
68 369T49 366Q39 376 33 450T33 542Z" />
<glyph unicode="#" glyph-name="numbersign" horiz-adv-x="388" d="M230 353Q230 369 226 372T199 376Q174 376 169 370T155 326Q151 310 155 307T185 304Q214 304 222 313T230 353ZM125 464Q129 479 130 509T139 554T168 568Q180 568 181 558T180 496L175 424H207Q229
424 233 427T239 446Q239 472 250 521T275 566Q300 569 305 556T299 496Q286 437 286 432Q286 426 318 421Q346 417 355 406T351 386T309 376Q286 376 278 365T270 322Q270 311 275 308T296 304Q323 304 334 284Q344 264 338 259T294 250L254 246Q257 205 248 155T226
104Q208 104 202 124T200 192L205 256H143L137 192Q130 107 111 106Q105 106 98 112Q89 120 87 133T88 186Q91 232 89 240T74 248Q30 248 30 276Q30 292 42 298T83 304Q97 304 103 307T110 315T111 331T115 351L120 376H84Q62 376 54 379T44 393Q40 406 55 415T98
424Q109 424 113 431T125 464Z" />
<glyph unicode="$" glyph-name="dollar" horiz-adv-x="313" d="M166 256Q166 224 172 219T198 232Q225 259 201 283Q166 319 166 256ZM126 449Q126 496 119 496Q111 496 103 484T94 456Q92 428 95 419T110 406Q121 403 123 410T126 449ZM126 594Q126 635 139 640Q144
640 155 614T166 578Q166 563 192 557Q213 552 229 540T246 515Q247 501 216 498T166 502L170 365L197 357Q222 349 250 322T282 272T271 214Q259 188 240 174T184 148Q173 145 170 138T166 108Q166 72 156 67Q150 63 143 69T131 89T126 117Q126 134 121 138T92
147Q64 151 47 163T30 193Q30 207 42 210T88 210L126 206V318L93 341Q53 368 42 388T30 451Q30 485 34 497T58 530Q86 560 105 560Q119 560 122 565T126 594Z" />
<glyph unicode="%" glyph-name="percent" horiz-adv-x="760" d="M631 334Q573 367 526 332Q497 310 487 288T482 234Q489 190 522 170T607 160Q643 167 662 189T681 242Q680 278 669 299T631 334ZM580 400Q613 400 626 396T664 371Q695 345 703 334T722 285Q735
244 725 214Q714 176 680 150T603 117T518 123Q472 139 442 183T419 267Q437 351 506 387Q532 400 580 400ZM233 463Q208 476 178 472T127 449Q83 408 93 350Q97 330 103 319T126 298Q145 285 157 283T202 283Q261 289 283 321T286 406Q273 442 233 463ZM114 510Q136
523 249 520L286 482Q350 417 337 347T241 246Q182 225 125 248T39 326Q18 367 41 425T114 510ZM494 512Q494 486 441 392Q434 380 380 276T308 142Q282 98 268 105Q262 107 262 120Q262 137 354 311T469 514Q494 542 494 512Z" />
<glyph unicode="&amp;" glyph-name="ampersand" horiz-adv-x="488" d="M257 324Q239 337 202 336T148 322Q130 308 126 271T135 217Q158 191 205 196T283 235L309 262Q282 306 257 324ZM198 488Q163 488 154 485T140 467Q132 449 132 432Q132 413 154 401T206
391T250 410Q264 426 266 446T258 478Q248 488 198 488ZM396 261T396 254T424 210Q472 148 452 124Q427 93 376 146L342 182L317 159Q289 134 247 123T168 120Q120 130 97 144T52 189Q40 206 36 219T31 240T32 265T36 296Q36 319 56 349Q70 371 71 378T64 401Q41
441 58 486T120 546Q134 549 196 551Q245 552 265 544T322 502Q347 479 348 449T328 394L309 372Q333 344 346 330L368 354Q410 398 436 384Q453 375 451 357T424 304Q396 261 396 254Z" />
<glyph unicode="&apos;" glyph-name="quotesingle" horiz-adv-x="120" d="M33 556Q38 570 56 566T84 544Q92 528 90 485T77 410Q62 365 47 396Q36 421 32 480Q28 545 33 556Z" />
<glyph unicode="(" glyph-name="parenleft" horiz-adv-x="181" d="M129 515Q129 486 109 430Q96 393 93 366T89 268Q89 162 106 115Q124 63 127 40Q129 20 137 8T149 -18Q158 -57 109 -45Q89 -39 89 -20Q89 0 82 3Q76 6 69 48T56 94Q48 104 37 173Q28 229 31 274T54
408Q72 490 78 510T94 539Q108 553 118 546T129 515Z" />
<glyph unicode=")" glyph-name="parenright" horiz-adv-x="156" d="M48 544Q67 544 71 534Q79 510 100 441Q117 384 121 355T126 261Q126 155 105 60T60 -36Q53 -36 51 -18T52 28T64 86Q79 137 77 241T57 412Q37 494 33 514Q29 535 31 539T48 544Z" />
<glyph unicode="*" glyph-name="asterisk" horiz-adv-x="331" d="M198 427Q198 426 227 386T254 340Q254 326 248 315T235 304Q227 304 201 328T174 361Q174 380 159 360Q153 351 146 337Q135 312 121 302T96 301T86 335Q86 347 93 362T107 386T128 412T144 432H112Q30
432 30 456Q30 479 59 484T132 476Q145 472 146 477T145 518Q140 549 142 568T160 592Q195 592 192 519Q190 472 195 472Q199 472 222 488Q244 504 270 506T300 494Q304 476 283 459T233 436Q198 432 198 427Z" />
<glyph unicode="+" glyph-name="plus" horiz-adv-x="439" d="M409 340Q409 318 382 303T313 288H269L271 226Q273 185 271 173T258 150Q242 134 226 139Q205 145 193 192T185 288H125Q35 288 30 316Q29 321 33 328Q44 345 94 358T185 368Q185 478 201 502Q229
542 245 504Q255 481 265 426L275 368L325 373Q409 382 409 340Z" />
<glyph unicode="," glyph-name="comma" horiz-adv-x="171" d="M141 150Q141 108 99 41Q65 -12 52 0Q51 1 50 4Q45 18 61 66Q78 122 73 126Q71 128 61 128Q39 128 32 153T41 195Q64 219 102 202T141 150Z" />
<glyph unicode="-" glyph-name="hyphen" horiz-adv-x="346" d="M172 248Q30 248 30 281Q30 294 41 301T90 317Q131 327 214 326T308 314T315 293T286 266Q269 254 250 251T172 248Z" />
<glyph unicode="." glyph-name="period" horiz-adv-x="151" d="M84 200Q134 205 117 138Q114 125 107 121T79 114Q54 112 46 117T32 149T40 186T84 200Z" />
<glyph unicode="/" glyph-name="slash" horiz-adv-x="356" d="M230 513Q229 524 237 532T246 552Q246 566 257 570Q264 571 279 603T308 632Q317 632 321 628T325 615T319 593T304 558Q296 542 267 483T218 382T190 313Q190 304 184 304Q177 298 162 262T140 219Q126
207 126 194Q126 175 91 114T44 50Q35 48 33 54T30 86Q30 127 41 136Q51 145 70 189T94 240Q104 254 119 289T144 338Q158 357 158 366Q157 370 177 414T198 462Q198 467 214 485T230 513Z" />
<glyph unicode="0" glyph-name="zero" horiz-adv-x="534" d="M184 482Q184 472 165 453Q148 438 134 403T120 339Q120 266 149 213T226 145Q264 134 313 147T394 190L424 219V415L326 520Q296 522 265 519T208 507T184 482ZM424 540Q424 532 443 516Q466 495 485
433T504 313Q504 247 496 244Q488 240 488 220Q489 207 458 164T427 120Q424 111 387 90T313 55Q291 46 239 54T161 78Q136 93 112 117T88 150Q88 162 72 174Q61 181 52 214T38 254Q30 265 30 313T40 400Q56 465 91 523T160 600Q164 605 191 610T252 619T289 623Q302
623 333 614Q361 606 392 581T424 540Z" />
<glyph unicode="1" glyph-name="one" horiz-adv-x="122" d="M57 80Q47 80 42 88T34 124T30 203T31 341Q33 486 35 529T45 576Q69 592 77 570Q89 539 91 334Q93 193 91 153T82 99Q69 80 57 80Z" />
<glyph unicode="2" glyph-name="two" horiz-adv-x="378" d="M315 152Q339 152 343 148T348 124Q348 96 338 90Q320 79 194 85Q168 87 101 91Q65 93 50 105T41 139Q45 151 94 201T215 314L260 354V417Q260 478 244 491T151 504Q42 504 31 533Q27 543 43 558T80
578Q105 583 165 583T238 576Q292 553 313 521T338 422Q342 369 329 344T245 246Q227 228 212 211T189 183T182 172Q187 167 236 160T315 152Z" />
<glyph unicode="3" glyph-name="three" horiz-adv-x="412" d="M362 454Q362 420 326 372L354 332Q373 305 377 291T382 239T378 189T353 150Q312 100 252 85T124 92Q66 112 35 194Q26 218 33 230T69 249Q91 254 98 254T112 243Q122 230 122 219Q122 209 144 193T186
172Q209 167 245 182T294 219Q308 239 304 267T280 306Q264 315 150 324V404L202 406Q247 407 265 422T281 467Q277 512 196 512Q168 512 160 509T145 492Q129 458 71 480Q58 485 54 491T53 509T69 539Q87 567 110 568Q134 570 150 577Q169 585 218 581T293 565Q320
551 341 518T362 454Z" />
<glyph unicode="4" glyph-name="four" horiz-adv-x="416" d="M235 360Q244 403 246 454Q246 490 257 517T285 544Q306 544 316 518T332 430Q337 377 340 366T356 354Q385 349 386 320T357 284Q341 280 338 274T334 241Q334 220 329 153Q324 112 312 98T274 91Q236
100 237 205V270L154 274Q117 276 98 277T62 286T40 301T32 329T31 370T41 432Q59 539 76 566Q89 585 107 584T134 562Q141 543 135 475T116 360H235Z" />
<glyph unicode="5" glyph-name="five" horiz-adv-x="383" d="M98 264Q107 264 107 246Q107 233 118 212T142 182Q162 172 196 177T259 206T281 254Q279 271 273 281T251 302Q232 315 217 318T159 319Q136 318 127 318T104 319T86 322T75 331T68 343T66 365T64
392T65 432Q66 529 79 549Q88 564 101 566T181 566Q189 566 193 566Q264 564 281 561T308 545Q332 515 294 504Q272 497 222 494Q144 488 142 486Q140 482 138 465T133 424T129 394Q170 391 194 388T249 376T301 353T333 314Q343 293 346 285T352 263T353 230Q351
187 330 159T264 109Q216 87 177 90T77 122Q61 130 43 173Q31 203 31 211T41 230Q53 243 70 253T98 264Z" />
<glyph unicode="6" glyph-name="six" horiz-adv-x="391" d="M184 571Q188 569 198 569T212 566T217 554Q217 533 153 464Q101 407 107 345Q109 323 113 323Q115 323 121 329Q143 351 164 359T217 368Q254 368 278 356T335 307Q361 277 361 250Q361 207 337 179T267
140Q241 135 238 147T253 193Q272 225 272 240T257 275Q245 290 239 291T211 283Q183 273 179 264Q176 256 161 256Q135 256 143 224Q147 213 186 188Q210 174 217 165T225 142Q225 126 221 123T192 121Q145 122 104 143T45 198Q29 229 30 311Q31 405 45 442T121
545Q149 576 184 571Z" />
<glyph unicode="7" glyph-name="seven" horiz-adv-x="339" d="M81 570Q138 586 220 577T309 545Q314 528 296 471T253 364Q216 293 194 240Q161 164 143 138T107 114Q87 117 76 138Q65 161 77 195T151 356Q218 492 209 497Q198 501 146 498Q63 493 40 516Q7 549 81 570Z" />
<glyph unicode="8" glyph-name="eight" horiz-adv-x="387" d="M196 320Q110 320 119 215Q120 192 125 184T149 165Q207 135 260 185Q311 234 258 291Q240 309 229 314T196 320ZM244 489Q233 496 188 496T138 490Q133 480 128 450Q125 429 128 420T144 397Q187
354 235 395Q249 407 253 417T256 448Q254 482 244 489ZM357 223Q357 166 328 130T235 68Q210 59 198 58T163 63Q66 91 56 127Q53 145 40 164Q22 190 33 271T67 352Q84 352 68 375Q67 377 65 379Q53 394 53 454Q53 496 56 508T77 536Q86 544 94 549T107 558T123
562T140 564T164 565T194 567H251Q331 490 338 470Q344 453 337 427T316 382L300 361L329 317Q347 288 352 272T357 223Z" />
<glyph unicode="9" glyph-name="nine" horiz-adv-x="422" d="M241 510Q224 523 195 520T148 500Q132 485 129 456T136 409Q143 397 178 399T236 415Q269 435 274 447T268 478Q258 493 241 510ZM392 396Q392 311 380 258Q372 220 362 204T314 154Q260 104 247 104Q232
104 232 98Q232 91 201 77Q172 64 154 70T136 102Q136 115 148 127T203 168Q270 213 276 220Q292 237 307 291T314 354Q307 361 280 333Q260 312 249 308T193 304H132L30 407L35 453Q38 481 43 494T62 520Q98 552 159 580Q204 601 273 575T366 514Q385 487 388
472T392 396Z" />
<glyph unicode=":" glyph-name="colon" horiz-adv-x="136" d="M86 196T68 196T44 200T34 222Q27 249 36 261Q46 272 73 272T105 259T102 222Q97 205 92 201ZM36 403Q36 407 34 420T32 443T40 459Q55 472 77 472T104 456Q111 435 104 414T80 389Q64 384 50 388T36 403Z" />
<glyph unicode=";" glyph-name="semicolon" horiz-adv-x="180" d="M61 0Q54 0 52 9T52 35T62 78Q79 139 75 143Q74 144 68 144Q45 144 34 175T39 222Q50 232 82 231T132 219Q152 206 150 169T125 86Q107 50 89 25T61 0ZM122 404V364L88 362Q65 360 59 362T50 378Q36
432 70 441Q103 450 112 444T122 404Z" />
<glyph unicode="&lt;" glyph-name="less" horiz-adv-x="446" d="M367 528Q372 528 390 518Q425 503 392 456Q377 434 357 422T238 363L143 317Q321 231 350 220Q375 210 402 188Q422 167 414 146T384 117Q370 112 345 121T244 168Q58 260 34 304Q20 330 65 365T241
466L367 528Z" />
<glyph unicode="=" glyph-name="equal" horiz-adv-x="419" d="M189 224Q143 224 113 225T64 231T38 240T32 255Q36 274 72 283T198 297Q302 301 339 299T383 286Q390 274 389 269T373 250Q356 233 323 229T189 224ZM30 390Q30 425 202 432Q227 433 259 434T311
437T335 438Q353 441 374 426T385 394Q371 375 332 368T196 361Q101 361 66 367T30 390Z" />
<glyph unicode="&gt;" glyph-name="greater" horiz-adv-x="419" d="M389 324Q389 310 348 280T256 228Q248 224 174 188T70 144Q51 144 40 159T30 192T48 219Q80 237 163 272T281 326Q259 337 210 357T123 397T60 436Q42 451 38 472T48 498Q64 505 86 499T163
467Q185 457 227 437T281 411Q316 394 352 365T389 324Z" />
<glyph unicode="?" glyph-name="question" horiz-adv-x="332" d="M131 102Q125 121 129 132T145 147T172 152T206 152Q202 102 201 76H170Q148 76 142 80T131 102ZM302 444Q302 389 290 382Q277 375 277 367Q277 357 238 314Q208 281 203 270T202 232Q206 198
198 190T164 193Q125 208 125 273Q125 293 130 301T155 324Q230 373 231 447Q232 499 218 510T138 517Q68 511 48 524Q31 535 30 546T44 568T89 585Q154 601 208 586T278 534Q290 505 295 503Q302 500 302 444Z" />
<glyph unicode="@" glyph-name="at" horiz-adv-x="593" d="M221 327Q221 308 225 299T242 282Q264 268 309 265T364 274Q374 287 366 318T337 371Q322 387 309 389T267 384Q241 376 231 364T221 327ZM525 468Q528 460 537 437T553 393T562 350Q566 301 552 264T510
213Q488 201 455 201T412 211Q401 222 382 209Q362 196 298 196T214 210Q188 229 169 259T149 315Q148 383 187 419T301 456Q343 456 370 434T426 351Q462 277 464 270Q469 256 484 256T513 272Q522 282 524 294T522 338Q517 386 505 407Q493 430 463 459T418 491Q333
509 198 494L97 400V231L137 195Q181 155 211 146T323 136Q391 136 411 139T468 162Q503 180 512 182T531 174Q545 161 534 142T495 113Q380 72 267 86Q219 92 160 113T101 145Q101 150 70 183Q38 217 32 262Q27 305 33 357T52 434Q81 490 109 513T225 570Q268
586 325 583T417 559Q449 540 487 508T525 468Z" />
<glyph unicode="A" glyph-name="A" horiz-adv-x="560" d="M250 471Q236 454 231 433T214 392Q192 351 194 337T224 317Q267 310 310 312T354 323Q354 335 323 402Q308 434 299 451T281 476T265 483T250 471ZM138 402Q138 410 154 430T170 463Q170 492 222 562Q239
584 257 584Q273 584 297 564T322 530Q322 522 336 513Q347 506 359 486T385 436T403 399Q418 369 418 358Q418 345 433 334T473 317Q516 309 528 282Q538 260 509 253Q495 249 492 244T493 218Q500 165 502 122Q506 73 505 64T489 49Q467 41 454 52T430 102Q424
124 407 169T384 248H178Q165 194 150 172Q138 157 138 126Q138 96 118 76Q101 58 92 57T65 71L46 86Q82 225 78 247Q73 256 54 256Q37 256 31 271T38 300Q48 310 80 320Q111 328 124 358Q138 388 138 402Z" />
<glyph unicode="B" glyph-name="B" horiz-adv-x="455" d="M129 228Q129 164 138 154T213 144Q268 144 281 147T316 171Q345 200 345 218Q345 246 339 268T322 295Q309 303 232 308Q159 313 144 302T129 228ZM121 456Q121 411 133 401T191 396Q233 400 245 407T264
437Q270 458 264 476T243 499Q226 506 179 509T127 507Q121 502 121 456ZM323 368Q355 368 390 325T425 242Q425 195 394 148T322 87Q303 80 185 83T55 93Q49 97 51 298Q52 425 50 466T39 525Q30 543 30 548T42 567Q53 578 69 581T143 583Q228 583 264 566Q299
547 308 532Q318 513 323 511Q339 499 340 458T326 404Q318 399 311 382Q308 374 310 371T323 368Z" />
<glyph unicode="C" glyph-name="C" horiz-adv-x="468" d="M259 152Q295 152 335 161T395 182Q412 195 426 193T437 158Q434 135 429 127T407 108Q388 98 365 95T271 92H163L127 120Q72 163 51 203T30 305Q30 344 35 363T59 420Q94 488 129 521T220 567Q275 581
321 571T388 529Q426 472 387 454Q369 446 346 461Q300 493 273 495T203 473Q163 451 149 433T120 367Q82 242 180 175Q201 161 216 157T259 152Z" />
<glyph unicode="D" glyph-name="D" horiz-adv-x="462" d="M354 330Q354 371 350 382T324 413Q308 427 302 438T289 456T260 472Q229 486 178 488T121 478Q114 429 122 148Q154 141 192 150T249 179Q260 191 282 207T318 234T343 270T354 330ZM105 80Q83 80 76
83T63 98Q58 100 50 295T37 493Q30 497 30 530T36 571T161 574T284 563Q288 557 319 538Q343 524 372 491T419 424Q433 397 432 338Q431 295 424 277T379 196Q368 177 351 165T287 131Q182 80 105 80Z" />
<glyph unicode="E" glyph-name="E" horiz-adv-x="361" d="M164 336Q177 336 193 334T225 329T252 323T272 316T279 309Q277 307 277 296Q277 268 179 271Q126 272 114 262T101 205Q101 167 120 159T213 155Q267 159 288 153T313 134T317 78Q306 79 227 81T97 88T45
101Q35 111 33 146T30 392Q29 491 31 517T42 550Q55 560 172 559Q283 558 306 553T331 519Q334 492 322 482Q317 478 300 476T253 472T201 470T145 469T105 468L102 420Q99 368 111 352T164 336Z" />
<glyph unicode="F" glyph-name="F" horiz-adv-x="347" d="M317 547Q317 519 296 511T196 502L97 500Q89 419 102 376H163Q201 376 215 373T244 358Q255 349 258 342T259 331T249 320T239 308Q237 303 226 301T199 297T165 296T130 296T102 296L96 76H33L31 320Q29
487 31 527T43 574Q56 583 170 584T302 576Q317 568 317 547Z" />
<glyph unicode="G" glyph-name="G" horiz-adv-x="459" d="M106 279Q106 220 115 202T162 167Q193 153 220 153T288 168Q349 193 368 256Q381 297 360 307T287 295Q246 278 221 282Q202 284 198 288T192 312Q190 332 196 339T237 362Q284 384 336 389T405 381Q437
351 427 261Q423 223 390 171T330 105Q304 93 284 83Q265 73 220 72T170 80Q167 88 151 88Q136 88 103 124T50 195Q21 257 34 342T84 467Q94 478 101 491T115 513T136 528Q144 532 162 544T198 565T232 577Q359 594 368 558Q375 534 358 522T261 483Q212 466 191
455T145 418T113 369T106 279Z" />
<glyph unicode="H" glyph-name="H" horiz-adv-x="444" d="M341 119Q341 171 332 252T315 338Q303 345 238 344T149 334Q128 327 125 319T116 264Q98 74 66 73Q56 73 44 88Q33 102 31 114T32 160Q33 172 39 241T49 352Q68 568 86 589Q90 595 102 595T118 589Q121
568 129 420L340 416L345 470Q351 536 357 558T377 582Q399 585 405 574Q415 554 414 397Q414 378 414 347Q412 180 407 128T384 69Q364 61 353 74T341 119Z" />
<glyph unicode="I" glyph-name="I" horiz-adv-x="245" d="M44 549Q55 566 127 557T204 524Q211 511 209 505T189 491L164 479Q168 192 177 158Q181 144 198 140Q216 134 214 111T193 80Q177 73 129 73T66 77Q50 83 53 109T74 153L96 172L90 311Q86 421 78 454T45
494Q31 499 31 518T44 549Z" />
<glyph unicode="J" glyph-name="J" horiz-adv-x="320" d="M264 592Q283 592 287 554T290 374Q289 237 286 209T267 163Q217 104 160 104Q133 104 112 116T77 132Q43 141 32 171Q23 198 46 206Q51 208 58 208Q76 208 102 196Q122 185 137 185T178 193Q191 197 199
207T219 242Q231 271 233 299T234 424Q231 566 242 578Q252 592 264 592Z" />
<glyph unicode="K" glyph-name="K" horiz-adv-x="385" d="M139 415Q139 419 159 438T179 461Q179 468 235 522Q291 577 309 574Q334 570 331 547T299 488Q266 448 256 448Q249 448 224 418T182 358Q172 342 178 325T204 299Q217 293 236 267T270 237Q293 231 324
188T355 118Q355 96 344 87T317 85T289 113Q278 133 255 146Q235 155 235 162T187 222T125 282Q102 296 95 252Q91 229 91 186Q91 114 86 97T59 80T32 98Q31 156 31 223T34 417T37 576Q83 578 95 564T107 489Q107 424 99 424Q93 424 92 417T93 401T104 389Q114
385 126 394T139 415Z" />
<glyph unicode="L" glyph-name="L" horiz-adv-x="354" d="M48 581Q64 593 72 591T91 566Q99 551 102 510T111 354Q116 234 120 201T132 168Q141 168 218 167T321 164Q327 124 314 113Q303 105 205 96T79 92Q42 99 36 134T31 352Q33 505 35 539T48 581Z" />
<glyph unicode="M" glyph-name="M" horiz-adv-x="546" d="M92 576Q105 576 130 556T156 526Q156 521 179 492Q253 405 260 374Q265 357 274 355T289 366Q292 375 308 413T328 464Q333 480 346 499T365 538Q369 550 375 559T386 568Q396 568 415 533T440 468Q443
450 469 358T497 234Q503 183 509 179Q516 175 516 146T510 107Q505 98 483 93Q459 88 444 107T420 174Q404 276 380 378Q371 365 359 349T337 319T315 285Q296 253 285 246T260 251T217 304Q198 330 175 370Q152 410 143 409Q130 408 121 302Q119 278 116 236Q107
106 99 98Q90 88 68 88T36 100Q28 111 30 177T44 300Q48 317 59 432T73 562Q77 576 92 576Z" />
<glyph unicode="N" glyph-name="N" horiz-adv-x="436" d="M406 318Q406 169 404 136T390 96Q365 83 345 89T297 126Q268 157 231 209T178 296Q165 325 103 377Q96 228 96 146Q98 100 92 91Q87 86 66 86T39 92T31 309T33 541Q38 562 55 558T89 527Q108 497 129
468T182 398T234 330Q284 263 300 246T324 235Q326 235 328 269T331 351T333 447T337 527T343 558Q353 570 367 568T393 550Q401 539 403 497T406 318Z" />
<glyph unicode="O" glyph-name="O" horiz-adv-x="561" d="M154 424Q144 424 130 385T116 316Q116 263 139 219T198 161Q235 147 295 154T377 181Q383 187 425 225Q480 274 470 350Q454 466 358 488Q297 502 243 489T171 444Q160 424 154 424ZM459 527Q459 519
476 502Q492 484 513 450Q527 426 529 407T530 314L527 211L491 175Q422 104 389 104Q373 104 369 94Q366 84 264 84T157 94Q154 104 140 104Q124 104 99 132T63 192Q59 203 50 225T38 255Q22 290 37 359T84 476Q120 527 138 543T199 573Q247 589 275 590T352 583Q386
577 422 558T459 527Z" />
<glyph unicode="P" glyph-name="P" horiz-adv-x="451" d="M341 434Q341 453 317 474T258 507Q227 517 192 519T145 514Q137 509 132 437T133 352Q141 339 197 350Q249 359 295 386T341 434ZM97 80Q82 80 74 88T62 121T57 192T59 314Q63 446 62 473T47 516Q17 553
44 573Q60 586 156 585T290 570Q333 556 351 541T393 488Q422 441 421 415T385 353Q356 321 317 304T210 274Q163 265 153 254T145 206Q147 173 147 145T134 99T97 80Z" />
<glyph unicode="Q" glyph-name="Q" horiz-adv-x="570" d="M193 160H333L316 187Q289 229 311 258Q323 274 337 269T380 235L416 199Q467 260 472 289Q477 316 472 358T459 405Q452 408 452 427Q452 445 419 469Q397 485 379 488T308 494Q247 496 227 490T183 457Q180
453 167 438T148 417Q111 374 120 284Q124 248 130 234T159 195L193 160ZM396 577Q396 572 417 561Q433 554 465 520T522 451Q534 433 537 413T540 325Q540 230 535 213Q532 203 491 169Q465 148 461 142T464 127Q481 110 492 87Q502 67 502 61T493 46Q478 33 468
30Q456 26 434 37T400 66Q392 78 375 80T274 84Q163 86 142 92Q128 97 111 126T87 161Q74 171 55 215T31 288Q24 328 57 413T123 526Q128 530 167 549T212 576Q224 589 253 598T308 603Q396 589 396 577Z" />
<glyph unicode="R" glyph-name="R" horiz-adv-x="439" d="M178 504Q142 504 129 501T105 485Q93 472 91 461T93 415Q104 304 127 304Q144 304 196 317T249 335T269 363Q281 377 285 391T289 434Q289 468 285 476T261 493Q234 504 178 504ZM409 107Q409 79 389
75Q375 73 360 78T336 88T311 109T289 128Q157 234 129 238Q122 237 119 221T114 160Q112 85 103 74Q84 50 49 81Q38 92 36 102T37 138Q39 153 34 338T32 541Q34 552 65 576Q97 593 170 589T280 571Q310 560 320 551T349 508Q377 456 377 438Q377 415 350 364T295
285L265 254Q314 218 359 177Q391 149 400 136T409 107Z" />
<glyph unicode="S" glyph-name="S" horiz-adv-x="348" d="M278 527Q278 517 268 515T208 512Q137 512 124 498Q93 463 109 427T185 361Q235 336 240 336Q246 336 266 316T286 291Q286 285 302 274Q318 264 318 220T302 160T286 135T241 106Q213 93 195 91T137
90Q84 94 65 106T48 147Q50 167 61 169T116 163Q143 158 185 172Q215 182 223 188T235 213Q240 242 233 252T192 271Q167 277 149 289T98 333Q46 383 46 396Q46 408 38 408Q28 405 30 464Q31 506 38 504Q46 504 46 513Q46 527 72 557T114 591Q139 598 150 598T198
592Q232 585 255 567T278 527Z" />
<glyph unicode="T" glyph-name="T" horiz-adv-x="429" d="M316 512Q278 512 269 509T253 488Q244 464 249 278Q254 91 249 73Q246 62 240 59T219 58Q201 59 197 64T188 96Q186 111 182 289T174 484Q170 502 161 505T101 512Q52 515 42 518T31 534Q28 551 32 566Q36
574 67 575T213 574Q390 570 397 563T386 534Q373 519 362 516T316 512Z" />
<glyph unicode="U" glyph-name="U" horiz-adv-x="502" d="M390 584Q421 584 444 502T472 301Q475 215 464 183T415 128Q407 124 385 110T355 93T329 81T297 70T261 64T213 61Q127 61 98 76T50 148Q10 266 44 450Q56 514 71 541T108 566Q121 565 123 540T129 374L133
184Q140 178 149 169T163 157T178 150T204 144T244 143Q313 143 329 152T365 195Q379 219 382 240T385 329Q385 430 368 495Q352 560 361 572Q373 584 390 584Z" />
<glyph unicode="V" glyph-name="V" horiz-adv-x="467" d="M69 584Q86 584 92 573T116 505Q141 426 141 417Q143 406 152 382T165 336Q172 302 200 230T236 150Q239 147 248 162Q256 176 267 202Q288 252 298 287T333 428Q357 528 362 544T382 569Q397 577 417
566T437 538Q437 521 414 428T372 280Q326 139 303 98T244 56Q223 56 195 98Q165 141 121 232T70 354Q56 417 46 452Q32 506 31 529T37 569Q46 584 69 584Z" />
<glyph unicode="W" glyph-name="W" horiz-adv-x="754" d="M582 342Q579 362 604 406T630 463Q630 484 648 513T684 550Q707 559 711 558T721 539Q728 515 720 478T697 416Q681 391 675 363T656 307Q582 134 582 103Q581 88 568 68T544 48Q541 48 535 56T525 74Q521
86 497 121T470 170Q465 190 440 223T409 266Q387 304 377 304Q369 302 346 257T315 209Q302 198 302 182Q302 169 265 122T208 63Q186 51 172 66T140 133Q132 158 123 182T110 218T100 251T86 308Q66 388 49 414Q46 419 44 424T39 434T36 446T33 458T32 471T31
484T30 499T30 513T30 528T30 544H61Q106 551 118 490Q117 480 141 400T166 310Q166 288 180 252T205 212Q217 208 226 220T253 272Q269 311 287 333Q302 350 302 363Q302 387 331 429T378 472Q389 472 394 454Q397 443 419 414T443 364Q445 346 465 315T486 279Q486
271 507 244T536 216T548 230Q550 237 560 260T577 304T582 342Z" />
<glyph unicode="X" glyph-name="X" horiz-adv-x="476" d="M446 510Q446 496 418 452T354 364Q320 322 308 302Q298 286 298 280T308 258Q321 236 354 196T413 130Q431 112 434 104T432 83Q423 64 409 64Q397 64 360 93T298 152Q253 203 234 223L174 155Q116 88
90 68T47 56Q30 64 30 83Q30 97 42 114T106 190Q178 273 183 278Q165 320 133 378T88 444Q76 454 73 481Q69 506 80 521T116 536Q130 536 137 529T156 496T182 450T205 410Q216 384 223 384T230 373Q230 345 250 364Q255 370 261 378Q278 402 317 454T373 530Q388
551 417 543T446 510Z" />
<glyph unicode="Y" glyph-name="Y" horiz-adv-x="430" d="M87 534Q95 530 97 439T106 340Q112 327 121 324T163 320Q258 320 305 394Q322 421 325 433T325 474Q318 535 341 532Q348 531 358 522Q388 495 397 290Q401 210 399 190T383 144Q361 103 326 88T225 74Q113
79 106 115Q103 133 119 140T190 152Q248 157 275 167T317 197Q328 213 338 270T341 334Q340 335 335 333T322 324T306 310Q275 280 254 272T175 259Q131 256 116 258T83 271Q54 289 43 323T30 424Q28 499 39 522Q47 539 61 542T87 534Z" />
<glyph unicode="Z" glyph-name="Z" horiz-adv-x="412" d="M282 384Q275 375 269 361T249 335Q236 324 219 293T191 250Q184 243 166 214T136 177Q121 169 131 154Q137 144 155 143T245 143Q315 145 335 143T366 132Q406 97 352 81Q328 74 194 73T43 77Q32 82 31
100T39 138Q45 149 86 206T136 280Q153 316 206 384Q217 398 223 413T246 446Q275 479 268 487Q260 496 180 496Q88 496 59 501T30 523Q30 542 56 550Q78 557 194 558T334 553Q347 549 350 543T353 519Q352 500 328 455T282 384Z" />
<glyph unicode="^" glyph-name="asciicircum" horiz-adv-x="241" d="M93 488Q113 510 125 507T162 470Q233 370 200 357Q192 353 177 365T142 400T119 425L92 394Q49 344 34 363Q31 367 30 374Q28 389 48 425T93 488Z" />
<glyph unicode="_" glyph-name="underscore" horiz-adv-x="486" d="M231 -24Q55 -24 35 -4Q25 5 37 24Q34 30 65 34T145 40T242 43T330 45T374 46Q399 48 419 45T448 34T455 18Q451 7 420 -8Q400 -19 369 -21T231 -24Z" />
<glyph unicode="`" glyph-name="grave" horiz-adv-x="182" d="M138 392Q124 392 91 415T49 455Q24 500 33 526Q37 539 54 543T84 538Q97 528 121 485T150 421Q153 402 151 397T138 392Z" />
<glyph unicode="a" glyph-name="a" horiz-adv-x="421" d="M286 194Q286 215 275 243T248 290Q235 304 203 303Q166 302 150 293T126 260Q116 232 129 204Q141 179 157 170T212 157Q254 153 270 161T286 194ZM197 384H267Q334 303 334 283Q334 264 340 264Q348
264 368 216Q379 192 385 158T391 98T381 72T355 82T330 102Q322 114 294 92Q275 78 261 75T205 74Q144 76 116 96Q86 117 86 125T74 139Q58 145 44 174T30 230Q30 294 95 354Q120 376 132 380T197 384Z" />
<glyph unicode="b" glyph-name="b" horiz-adv-x="342" d="M200 279Q148 294 132 285Q121 279 119 263Q108 173 124 161Q134 153 185 160T244 178Q256 196 239 234T200 279ZM58 552Q72 552 78 547T90 523Q95 509 97 483T101 415T104 364L167 360Q206 358 224 353T262
334Q293 312 304 286Q314 259 313 218T300 142Q290 114 281 106T234 82Q196 67 185 66T146 74Q111 87 81 83Q54 78 44 90Q37 98 32 272T32 506Q34 539 38 545T58 552Z" />
<glyph unicode="c" glyph-name="c" horiz-adv-x="321" d="M30 255Q30 287 56 325T110 373Q135 383 166 383Q195 384 229 370T267 342Q273 323 255 315T195 310Q164 312 152 310T128 297Q111 280 111 254T126 206Q161 162 243 171Q286 175 289 169Q296 159 283
134T256 103Q234 95 195 96T132 107Q88 126 59 168T30 255Z" />
<glyph unicode="d" glyph-name="d" horiz-adv-x="351" d="M159 336Q139 336 132 332T118 313Q108 290 111 256T125 216Q205 176 235 197Q260 213 252 260T212 324Q188 336 159 336ZM296 576Q316 576 320 562Q324 545 319 350Q314 202 311 175T293 134Q272 116
225 116Q134 116 81 175Q65 193 42 219Q27 236 31 283Q35 331 43 335Q46 338 56 354T75 374Q86 378 97 385T114 395T139 399T185 397L253 392Q251 517 264 548Q271 564 278 570T296 576Z" />
<glyph unicode="e" glyph-name="e" horiz-adv-x="319" d="M159 344Q147 344 128 325T109 294Q109 268 120 264T168 274Q206 289 211 301T190 330Q164 344 159 344ZM277 333T277 307T251 259T185 228Q160 223 156 219T160 205Q172 189 222 183Q273 177 283 163Q304
134 252 129Q238 128 219 128Q152 128 104 156T38 231Q22 277 36 320T84 376Q112 388 117 391Q135 403 215 383Q243 376 260 355Z" />
<glyph unicode="f" glyph-name="f" horiz-adv-x="251" d="M124 576Q142 576 165 566T192 547Q196 536 209 536Q219 536 220 519T214 489Q210 481 201 481T164 490Q127 502 118 496T109 454Q109 433 113 429T136 424Q159 423 174 413T189 386Q189 361 162 355T109
359V104Q99 105 92 105T78 104T68 106T60 112T53 124T44 142Q34 167 32 196T32 324Q35 443 43 480T84 550Q110 576 124 576Z" />
<glyph unicode="g" glyph-name="g" horiz-adv-x="364" d="M180 314Q163 309 151 269T142 192H184Q213 192 221 195T236 212Q242 221 245 248T255 282Q265 286 254 298Q244 308 221 313T180 314ZM318 272Q318 232 326 232Q336 236 333 166Q332 126 327 128Q320
128 311 87Q289 -2 226 -42Q193 -62 141 -63Q107 -64 93 -60T59 -42Q33 -22 31 -4T51 19Q74 25 94 15Q123 4 157 12T215 44Q255 85 259 95T250 118Q238 129 187 124Q117 116 92 140T68 238Q71 302 87 324Q116 365 154 378Q168 382 211 379T274 367T306 333T318
272Z" />
<glyph unicode="h" glyph-name="h" horiz-adv-x="315" d="M109 471V402Q195 395 235 370Q268 349 277 317T284 202Q283 149 280 132T265 107Q242 90 233 121Q226 144 221 208Q214 298 212 300L188 314Q146 340 122 315Q109 302 109 212V121L85 108Q68 99 64 100T48
118Q38 132 36 170T31 346Q28 554 37 564Q48 576 56 575T85 558Q102 545 105 534T109 471Z" />
<glyph unicode="i" glyph-name="i" horiz-adv-x="133" d="M39 412Q49 426 66 422T93 400Q104 377 103 272T91 144Q64 93 47 150Q31 198 30 307Q27 397 39 412ZM34 541Q38 549 62 551T90 546Q112 505 86 480Q75 469 69 469T52 475Q39 482 34 503T34 541Z" />
<glyph unicode="j" glyph-name="j" horiz-adv-x="313" d="M283 209Q283 29 251 -16Q220 -60 155 -63T48 -27Q26 -7 31 10Q38 34 50 37T107 26Q128 19 140 16T162 14T175 16T189 23T205 34Q205 40 202 150T198 330T205 407Q222 424 239 409T271 350Q283 310 283
209ZM204 534Q215 545 239 542Q255 541 259 536T267 510T268 483T253 464Q228 441 206 470Q186 496 196 522Q198 529 204 534Z" />
<glyph unicode="k" glyph-name="k" horiz-adv-x="301" d="M176 261Q176 252 224 204Q274 156 271 136Q270 125 265 121T246 114Q232 112 218 121T173 159Q124 208 114 208T92 169Q81 134 69 122T42 118Q31 125 30 170T37 430Q42 568 54 580Q65 591 80 591T104
582Q108 584 109 535Q109 512 108 455Q106 322 112 321Q116 316 121 319T141 340Q184 395 196 405T228 414Q243 412 249 407T255 390T244 363T217 323Q176 267 176 261Z" />
<glyph unicode="l" glyph-name="l" horiz-adv-x="134" d="M30 383Q30 585 38 604Q47 627 61 622T83 588Q93 549 104 130L86 118Q56 97 45 129Q30 172 30 383Z" />
<glyph unicode="m" glyph-name="m" horiz-adv-x="529" d="M410 203Q410 224 388 256T349 293Q329 298 314 288T297 258Q295 231 298 182Q299 149 297 137T283 113Q266 96 252 96Q230 96 221 118T207 199Q204 272 193 285Q186 295 161 295T122 288Q110 281 110
194V108Q58 101 44 119T30 219Q30 290 45 325T94 370Q117 377 164 371T232 352L260 336Q335 391 408 342Q435 324 448 310T475 266Q497 219 499 171T483 112Q455 98 433 126T410 203Z" />
<glyph unicode="n" glyph-name="n" d="M326 256Q330 256 332 242T332 214T325 200Q317 198 317 128H285Q262 128 258 132T253 157Q253 191 243 244T225 304Q212 314 171 320T116 320Q106 315 104 298T99 222L97 132H33L31 242Q30 320 32 338T46 369T73 382T145
382Q229 378 246 368Q268 357 289 332T314 283Q318 256 326 256Z" />
<glyph unicode="o" glyph-name="o" d="M247 289Q232 303 221 307T184 312Q145 311 132 302T114 261Q109 224 115 208T147 184Q201 167 246 206Q292 244 247 289ZM30 248Q30 310 44 337T98 378Q143 394 189 391T264 365Q309 331 326 282T326 189T264 123Q209 97
143 107T50 158Q37 177 34 193T30 248Z" />
<glyph unicode="p" glyph-name="p" horiz-adv-x="344" d="M245 270Q245 295 236 299Q219 304 176 306T126 305Q117 300 121 204H163Q245 206 245 270ZM141 384Q193 394 236 381T299 338Q315 315 314 266T297 194Q278 167 241 152T161 138H113Q114 88 103 17T82
-69Q73 -83 55 -77Q39 -72 33 -26Q27 22 33 193T48 374Q59 385 88 384T141 384Z" />
<glyph unicode="q" glyph-name="q" horiz-adv-x="350" d="M105 258Q105 220 115 206T154 192Q214 192 236 249Q248 278 248 287T236 307Q210 333 140 306Q114 296 110 290T105 258ZM130 382Q168 401 220 401T289 382Q308 361 309 348Q312 326 320 -72Q318 -72
311 -74T300 -77T290 -78T280 -78T272 -74Q262 -64 257 -29T255 44Q259 99 242 135L178 130Q133 127 119 129T77 149Q48 168 40 186T30 249Q29 274 34 286T62 325Q92 362 130 382Z" />
<glyph unicode="r" glyph-name="r" horiz-adv-x="242" d="M212 359Q212 336 206 336Q196 336 160 305T119 261Q112 240 112 176Q112 124 110 116T91 106Q69 104 61 123T45 220Q36 313 31 337Q27 366 40 379Q54 392 67 390T88 370Q93 358 97 356T107 356T132 372Q153
387 171 391T201 387T212 359Z" />
<glyph unicode="s" glyph-name="s" horiz-adv-x="262" d="M208 360Q208 345 202 341T168 333Q131 328 116 323Q94 314 131 286Q146 275 167 264Q231 230 232 189T170 117Q132 98 82 107T32 143Q32 184 100 174Q149 167 151 187Q152 203 126 214Q119 217 112 218Q91
221 60 250Q32 277 30 308T54 362Q76 382 88 386Q101 391 137 391T190 387Q208 381 208 360Z" />
<glyph unicode="t" glyph-name="t" horiz-adv-x="408" d="M157 468Q158 559 208 576Q224 576 233 481L239 422L293 427Q336 431 353 425T377 395Q384 373 367 363T310 352Q255 352 245 336T240 237Q244 159 238 132T209 99Q188 93 172 112Q163 123 160 145T157
233Q157 336 149 341Q135 347 88 350Q42 354 33 365T49 398Q70 416 101 416Q139 416 148 424T157 468Z" />
<glyph unicode="u" glyph-name="u" horiz-adv-x="365" d="M44 392Q59 408 81 408T115 390Q127 372 118 333Q108 286 124 247T168 201T226 221Q238 234 243 250T251 306Q255 365 265 381T301 384Q320 373 327 354T335 292Q336 228 316 192T243 131Q201 111 172
113T102 140Q73 158 63 170T45 206Q39 225 34 263T30 342T44 392Z" />
<glyph unicode="v" glyph-name="v" horiz-adv-x="354" d="M54 400Q65 400 85 379T105 347Q105 334 111 320T128 289T143 262Q158 230 164 226Q171 222 194 244T226 284Q230 294 240 313T257 350Q267 375 291 380Q310 384 315 383T321 368Q326 330 319 305T288
251Q275 235 266 223T253 204T241 183T225 156Q207 131 204 122Q196 112 180 114T146 129T129 157Q127 164 116 178T103 206Q102 223 69 272Q17 353 34 385Q41 400 54 400Z" />
<glyph unicode="w" glyph-name="w" horiz-adv-x="594" d="M255 350Q255 368 271 376T307 378T333 353Q339 338 375 281T415 224Q420 224 454 278T496 351Q504 371 523 378T556 375Q570 365 562 326T532 252Q530 248 523 237T512 218T500 199T487 180T474 162T462
145T451 132T441 123T433 120Q420 120 378 161T335 214Q335 227 308 271Q297 257 278 227T255 188Q255 176 232 148T199 120Q183 120 139 164T90 229Q85 252 57 287Q38 312 32 340T37 378Q51 392 70 375T131 296Q141 281 154 263T173 236T179 226Q181 224 189 235T208
263T229 298T247 331T255 350Z" />
<glyph unicode="x" glyph-name="x" horiz-adv-x="340" d="M34 149Q34 165 65 206T120 265L78 305Q9 370 38 382Q66 392 127 345L169 313L211 353Q280 418 294 376Q303 345 248 296L217 268L266 224Q303 191 309 174T293 149Q281 144 255 156T214 184Q189 211 175
210T120 176Q53 123 37 139Q34 143 34 149Z" />
<glyph unicode="y" glyph-name="y" horiz-adv-x="343" d="M126 -80Q84 -80 57 -66T30 -30Q30 -12 39 -9T106 -8Q140 -9 153 -5T196 24T232 58T238 97V137L204 116Q178 101 137 97T81 102Q46 126 46 240Q46 305 57 333T94 358Q109 357 112 345T118 264Q121 197
124 185T141 170Q160 167 187 181T222 214Q230 231 225 305Q220 375 230 388Q238 398 251 399T274 394Q292 380 299 354T310 250Q318 126 303 65T240 -37Q208 -63 186 -71T126 -80Z" />
<glyph unicode="z" glyph-name="z" horiz-adv-x="299" d="M148 108Q69 108 55 110T40 127Q36 153 48 175T108 243L170 304H30Q30 307 30 315T30 325T30 334T32 342T36 348T43 354T52 358Q74 364 149 366T237 361Q252 351 243 318T208 262Q160 217 122 175L174
177Q223 179 243 173T267 147Q274 121 254 115T148 108Z" />
<glyph unicode="{" glyph-name="braceleft" horiz-adv-x="226" d="M186 508Q186 486 182 481T158 472L130 468Q130 460 129 407T126 318T118 280Q108 280 114 254Q127 191 130 36Q169 36 187 25T191 -19Q177 -52 137 -37T78 22Q70 42 70 128Q70 191 67 205T50
229Q30 242 30 260T49 282Q62 283 64 297T70 390L74 498Q78 501 91 512T112 529T132 539T157 542Q179 538 182 535T186 508Z" />
<glyph unicode="}" glyph-name="braceright" horiz-adv-x="216" d="M68 552Q113 552 131 513T147 382Q146 324 148 312T168 286Q188 270 187 254T163 228Q151 223 148 206T145 120Q145 20 132 -1Q119 -21 98 -31T57 -37Q43 -33 40 -27T36 0T39 26T52 32Q81 32
86 46T92 134Q92 226 105 242Q114 252 115 256T108 269Q104 273 101 290T95 334T92 383T90 436T88 475L63 482Q39 488 33 496T32 528Q36 544 42 548T68 552Z" />
<glyph unicode="~" glyph-name="asciitilde" horiz-adv-x="368" d="M187 356Q231 327 254 329T304 373Q310 383 313 382T326 362Q345 325 334 292T287 248Q238 232 174 280Q123 319 95 288Q60 250 37 300Q25 325 33 338T79 369Q112 384 129 382T187 356Z" />
</font>
</defs>
</svg>
